<svg xmlns="http://www.w3.org/2000/svg" viewBox="0 0 333 20"><path fill-rule="evenodd" clip-rule="evenodd" fill="#fff" d="M333,17v2.3h-12.4V17h5.1V7.1h-4V4.8h4V0.1h2.4v4.8h4.1v2.3h-4.1V17H333z M318.4,19.7h-2.4V12c-1.1,0.9-2.3,1.7-3.6,2.3v-2.5c2.5-1.5,5-4.1,5.8-6.6h-5.5V3.1h3.3v-3h2.4v3h2c0.6,0,1,0.4,0.9,1c-0.3,2-1.8,4.2-2.6,5.3c1,0.7,2,1.4,2.9,2.1v2.6c-1-0.8-2.3-1.8-3.3-2.4V19.7z M306.8,8.5h-12.7V6.4c-1,0.5-2.1,1-3.3,1.5l-0.1,0V5.6c0,0,1.4-0.5,3.1-1.5c1.7-1,3.4-2.1,4.8-3.5c0.4-0.4,0.8-0.7,1.3-0.6h1.4c0.5,0,0.9,0.5,1.1,0.7c2.2,2,5.3,4.1,7.8,5V8c-0.9-0.2-2.1-0.8-3.3-1.5V8.5z M300.4,2c-0.3,0.4-2.3,2.3-6.3,4.4h12.6C303.9,4.8,300.9,2.4,300.4,2z M284.7,0.6h3.7v2h-3.7V0.6z M288.4,3.4v2.3h-4.8c0,5,0.1,8.3,4.8,11.4v2.7c-6.6-3.1-7.3-8.1-7.3-14.1h-11.8V3.3l11.8,0V0.3l2.6,0l0,3.1H288.4z M273.8,10.5h-4.1V8.3h10.4v2.2h-3.8v5.7c1.5-0.3,3.2-0.8,4.5-1.2v2.3c-3.1,1-8,2-11.6,2.3v-2.3c0,0,3.1-0.3,4.6-0.6L273.8,10.5z M261,19.7h-2.3v-6.5c-1.2,2.3-3.3,4.5-5.5,6v-2.6c1.9-1.5,3.8-4,4.9-6.1h-4.3V8.3h4.9V5.6h-2.2c-0.6,1.1-1.5,1.8-2.7,2.4V5.2c1.2-1.2,1.1-2.7,1.1-4.3h2.4l-0.1,2.4h1.5V0.3h2.3v3.1h4.5v2.2H261v2.8h4.9v2.2h-4.2c0.9,2.2,2.8,4.3,4.5,6v2.9c-2-1.6-4.1-4-5.3-6.2V19.7z M250.7,19.7h-2.2l0-9.3c-0.8,1.5-1.8,3-3.1,4.2v-2.8c1.6-2.4,2.2-3.3,3.1-5.7h-3.1V4h3.1V0.3h2.2V4h2.4v2.2h-2.4v1.6l2.4,2.8v2.9l-2.4-2.6V19.7z M240.1,19.2c0,0-3.2-5-3.6-5.5c-2.5,3.1-6.4,5.2-12.1,5.5v-2.6c4.9-0.4,8.9-2.4,11-6.3c1.4-2.6,1.5-5.1,1.5-6.9h-10.9V1.1h12c1.2,0,1.9,0.7,1.9,1.8v0.2c0,2.9-0.8,6.3-1.7,8c0.6,0.9,5.2,8.1,5.2,8.1H240.1z M212.7,19.1h-7.3v-2.5h7.3c5.4,0,6.9-3.6,6.9-7.6V4.7h2.8v4.1C222.4,16,219.1,19.1,212.7,19.1z M205.4,0.8h8.3v2.7h-8.3V0.8z M201.8,0.5h1.8V4h-1.8V0.5z M199,0.5h1.8V4H199V0.5z M182.9,0.8h15v2.4h-15V0.8z M200.1,9.1h-6.2c0,7-2.8,9.9-9.4,9.9h-1.2v-2.4h1.2c6.3,0,6.7-3.3,6.7-7.5h-9V6.7h18V9.1z M177.5,0.5h1.8V4h-1.8V0.5z M174.8,0.5h1.8V4h-1.8V0.5z M160.5,6.7h8.4v2.5h-8.4V6.7z M160.5,0.8h8.4v2.5h-8.4V0.8z M145,19.5h-0.8c-1.5,0-2.5-0.6-2.5-2.7V0.6h2.8v16.2c5.1,0,10.5-1.9,10.5-9.5h2.7C157.7,15.9,151.7,19.5,145,19.5z M120.3,17.6c0,0,7.1,0,7.6,0v-2.1c-0.5,0-5.7,0-5.7,0v-1.9c0,0,5.2,0,5.7,0v-1.9H124c-0.6,0.8-1.4,1.3-2.4,1.7v-2.3c0.9-0.8,1.1-1.4,1.1-2.8h2.3c0,0.5-0.1,1-0.2,1.4h3c0-0.4,0-1.5,0-1.5l2.5,0c0,0,0,1.1,0,1.5c0.5,0,5.8,0,5.8,0v1.9c0,0-5.3,0-5.8,0v1.9c0.5,0,5.4,0,5.4,0v1.9c0,0-4.9,0-5.4,0v2.1c0.5,0,6.9,0,6.9,0v1.9h-17V17.6z M120.7,10.1c0,5.1-0.9,8-3.6,9.6l-0.4,0.3v-2.2c0.7-1,1.6-1.8,1.6-6.4l0-4.1c0-0.8,0.6-1.5,1.5-1.5h2.6c-0.2-0.7-0.3-1.6-0.5-2.4h-3.6V1.5c0,0,7.5,0,8,0c0-0.4,0-1.1,0-1.1h2.8c0,0,0,0.8,0,1.1c0.5,0,8,0,8,0v1.9h-3.6c-0.2,0.8-0.4,1.7-0.5,2.4h4.2v2c0,0-15.8,0-16.4,0C120.7,8.1,120.7,10.1,120.7,10.1z M124.8,5.7h5.5c0.1-0.7,0.3-1.6,0.4-2.4h-6.3C124.5,4.1,124.7,5,124.8,5.7z M110.9,19.7c-0.6,0-2.2,0-2.2,0v-2c0,0,1.1,0,1.5,0c0.5,0,0.8-0.2,1-0.7c0.3-3.4,0.3-7.8,0.3-11.2h-1.7v0c0,9.2-1.1,12.3-4.3,13.7v-2.6c1.6-1.3,1.9-5.3,1.9-11.1v0h-1.7V3.7h1.7V3.6l0-3l2.4,0v3.1l2.8,0l0,0c0.8,0,1.5,0.6,1.5,1.5c0,3.5,0,8-0.2,11.7C113.7,18.9,112.4,19.7,110.9,19.7z M100.5,17.5c1.7-0.1,3.3-0.2,4.3-0.5v1.7c-2.2,0.4-6.7,0.7-11.4,0.7v-1.9c1.4,0,3.1,0,4.7,0v-1.3h-4.4v-1.7h4.4v-1H95c-0.7,0-1.2-0.6-1.2-1.2V7.6c0-0.7,0.5-1.3,1.2-1.3h3.1V5.4h-4.7V3.7h4.7V2.8c-1.4,0.1-3,0.1-4.5,0.1V1.2c3.8,0,8.7-0.4,11.2-0.7v1.9c-0.9,0.1-2.4,0.3-4.3,0.4v1h4.4v1.7h-4.4v0.9h3.1c0.7,0,1.2,0.6,1.3,1.3v4.7c0,0.7-0.5,1.2-1.3,1.2h-3.1v1h4.4v1.7h-4.4V17.5z M98.1,7.9h-2v1.3h2V7.9z M98.1,10.7h-2V12h2V10.7z M102.5,7.9h-2v1.3h2V7.9z M102.5,12v-1.3h-2V12H102.5z M81.8,19.7h-2.6V9.6c-2.3,2.5-5.3,4.6-8.5,5.3v-2.5c4.1-1,8.1-5.1,9.3-9.1h-9.3V1.1h19.3v2.2h-7.3C82.6,4,82.4,4.8,82,5.5c1.7,3.1,4.9,5.7,8.1,6.7v2.6c-3.4-1-6.4-3.2-8.3-5.9V19.7z M55.6,19.8l0-2.4c1.9-0.6,3.5-1.7,4.8-3.1c-1.5-2.5-2.1-5.4-2.1-8.5V5.3c-7.2,0-7.2,0-7.3,0c0,0.1,0,2.2,0,2.3c0.1,0,4.1,0,4.1,0c0.7,0,1.5,0.6,1.5,1.6l0,5.1c0,2-0.8,2.6-2.7,2.6h-2l-0.4-2.3h2c0.4,0,0.6-0.3,0.6-0.6l0-4.3c-0.1,0-3.1,0-3.3,0c0,0.1,0,3.3,0,3.3c0,3.4-1.2,5.6-3.8,6.9L47.1,20l0-2.4l0,0c1.4-1.5,1.4-2.9,1.4-5V4.7c0-0.9,0.8-1.5,1.6-1.5h8.1V0.2h2.5v2.9h5.9h0.1v2.2c-2.3,0-4.3,0-6,0v0.4c0,2.6,0.3,4.6,1.2,6.4c1-1.7,1.7-3.7,2.1-5.6h2.4c-0.3,2.3-1.4,5.2-3.2,7.6c0.9,1.1,2.1,2,3.7,3v2.7c-2.3-1-4-2.3-5.3-3.8C60.1,17.8,58,19.2,55.6,19.8z M63,0.3h3.6v2H63V0.3z M41.8,19.6h-5.7c-2,0-3.1-1-3.1-3.1v-16h2.6v6.2c2.2-0.6,5.6-1.9,8.1-3.7v2.9c-2.4,1.7-5.9,2.8-8.1,3.4v6.9c0,0.8,0.2,1,0.9,1h4.9c0.4,0,0.7-0.2,0.7-0.7v-2.4l2.3,0.4l0,2C44.4,18.5,43.8,19.6,41.8,19.6z M29.2,19.8h-2.4V9.9c-1.2,1.1-2.4,1.9-3.3,2.4l-0.1,0.1V9.6l0,0c1.6-0.9,4.9-4.2,5.1-9.1h2.6c0,2.5-0.8,4.7-1.8,6.5V19.8z M18.5,19.6h-7.6c-2.3,0-3.9-1.4-3.9-3.6c0,0,0-9.3,0-9.5c-0.1,0-1.7,0-1.9,0c0,0.1,0,3.5,0,3.5c0,5.7-0.9,8.1-5.1,10l0-2.4l0,0c2.3-1.6,2.5-3.3,2.5-7.5c0,0,0-3.4,0-3.5c-0.1,0-2.3,0-2.3,0V4.2c0,0,2.2,0,2.3,0c0-0.1,0-3.6,0-3.6h2.5c0,0,0,3.5,0,3.6c0.1,0,3,0,3,0c0.8,0,1.5,0.6,1.5,1.7V16c0,0.8,0.5,1.2,1.2,1.2h7.5c0.4,0,0.6-0.2,0.6-0.7v-1.6l2.2,0.4l0,1.3C21.2,18.3,20.4,19.6,18.5,19.6z M18.8,14.3h-6.2c-0.8,0-1.5-0.6-1.5-1.5v-10c0-0.9,0.8-1.5,1.5-1.5h6.2c0.8,0,1.5,0.6,1.5,1.6v10C20.4,13.6,19.6,14.3,18.8,14.3z M18,3.3c-0.1,0-4.5,0-4.7,0c0,0.1,0,3.1,0,3.2c0.1,0,4.5,0,4.7,0C18,6.4,18,3.4,18,3.3z M18,8.6c-0.1,0-4.5,0-4.7,0c0,0,0,3.6,0,3.6c0.1,0,4.5,0,4.7,0C18,12.1,18,8.6,18,8.6z M174.8,9v-4h2.8v3.8c0,7.2-3.4,10.3-9.7,10.3h-7.4v-2.5h7.4C173.3,16.6,174.8,13,174.8,9z M310,12.8h-12.5l-2.4,4.8h10.6l-1.9-3.7h2.7l1.8,3.4c0.6,1.5-0.3,2.3-1.3,2.3h-13c-1.1,0-2-0.9-1.3-2.3l2.2-4.6h-4.1v-2.1H310V12.8z"/></svg>