<svg xmlns="http://www.w3.org/2000/svg" viewBox="0 0 442.5 195.9"><path fill-rule="evenodd" clip-rule="evenodd" fill="#BEAE92" d="M440.1,146.2c-1.9,0.4-3.1,0.8-3.8,1.4c-0.7,0.6-1,1.6-1.1,2.9c0,0.8,0,2.2-0.1,4.1c-0.1,1.9-0.1,4.1-0.1,6.6c0,2.5-0.1,5.2-0.1,8c-0.1,2.8-0.1,5.5-0.1,8.2c0,2.7,0,5.1,0,7.3c0,1.2,0.1,2.4,0.2,3.6c0.1,1.2,0.2,2.2,0.3,3c0.1,0.9,0.1,1.5,0.1,1.9c0,1-0.2,1.6-0.5,2c-0.4,0.3-0.8,0.5-1.3,0.5c-0.5,0-1.5-0.4-2.9-1.2c-1.4-0.8-2.8-2.1-4.2-3.9c-0.6-0.6-1.4-1.6-2.6-3c-1.2-1.4-2.5-3-4.1-4.8c-1.6-1.8-3.3-3.8-5.1-5.8c-1.8-2.1-3.6-4.1-5.4-6.2c-1.8-2-3.5-4-5.1-5.8c-1.6-1.8-3-3.4-4.2-4.8c-1.2-1.4-2.1-2.4-2.8-3c-0.3-0.4-0.5-0.6-0.7-0.9c-0.2-0.2-0.5-0.3-0.7-0.3c-0.2,0-0.4,0.2-0.5,0.6c-0.1,0.4-0.2,0.7-0.2,1c-0.1,2.5-0.1,5.4-0.1,8.6s0,6.6,0,10.1c0,3.4,0,6.7,0,9.7c0,1.5,0.4,2.8,1.2,3.9c0.8,1.1,2.2,1.9,4.2,2.3c0.7,0.2,1.3,0.3,1.7,0.5c0.4,0.2,0.7,0.5,0.7,0.9c0,0.3-0.2,0.5-0.6,0.7c-0.4,0.2-0.9,0.2-1.6,0.2c-1.4,0-2.5,0-3.2-0.1c-0.8-0.1-1.4-0.1-2.1-0.2c-0.6,0-1.5,0-2.5,0c-1,0-1.8,0-2.5,0.1c-0.7,0.1-1.4,0.1-2.1,0.2c-0.7,0.1-1.5,0.1-2.5,0.1c-0.6,0-1.1-0.1-1.5-0.2c-0.4-0.1-0.7-0.4-0.7-0.7c0-0.4,0.2-0.7,0.6-0.9c0.4-0.2,1-0.5,1.8-0.7c1.4-0.4,2.4-1.2,3.1-2.3c0.7-1.1,1.1-2.4,1.2-4c0.2-2,0.4-4.6,0.7-7.8c0.2-3.2,0.4-6.8,0.6-10.8c0.2-4,0.2-8.1,0.2-12.4c0-2.7-0.7-4.7-2.1-5.9c-1.4-1.2-3.2-2.1-5.4-2.9c-0.3-0.1-0.7-0.3-1.4-0.6c-0.6-0.3-1-0.7-1-1.2c0-0.5,0.2-0.8,0.7-0.9c0.5-0.2,0.9-0.2,1.2-0.2c1.3,0.1,2.5,0.1,3.5,0.1c1,0,2,0.1,2.9,0.1c0.9,0.1,1.9,0.1,3,0.1c1,0,2.3,0,3.7,0c0.5,0,0.8,0.1,1.1,0.4c0.3,0.2,0.5,0.5,0.7,0.8c0.6,0.7,1.5,1.7,2.7,3.2c1.2,1.5,2.6,3.2,4.3,5.1c1.6,2,3.4,4.1,5.2,6.3c1.9,2.2,3.7,4.4,5.6,6.6c1.9,2.2,3.6,4.3,5.3,6.3c1.7,2,3.1,3.7,4.3,5.1c1.2,1.4,2.1,2.4,2.6,3.1c0.2,0.2,0.5,0.5,0.8,0.9c0.3,0.4,0.6,0.5,0.9,0.5c0.5,0,0.7-0.5,0.8-1.5c0-1,0-2.6,0-4.7c0-2.1,0-4.5,0-7.2c0-2.7,0-5.6,0-8.7c0-3,0-6.1-0.1-9.1c-0.1-1.1-0.6-2.1-1.6-2.9c-1-0.8-2.2-1.3-3.3-1.6c-0.7-0.1-1.4-0.3-2-0.5c-0.6-0.3-0.9-0.6-0.9-1c0-0.3,0.3-0.5,0.9-0.7c0.6-0.2,1.2-0.2,1.8-0.2c0.8,0,1.5,0,2.1,0c0.6,0,1.2,0,1.7,0c0.6,0,1.1,0,1.7,0c1.2,0,2.1,0,2.9,0c0.7,0,1.5-0.1,2.4-0.1c0.9-0.1,2-0.1,3.5-0.1c0.6,0,1.1,0.1,1.5,0.2c0.4,0.2,0.6,0.4,0.6,0.8C442.5,145.4,441.7,145.9,440.1,146.2z M438.6,115.5c-1.3,0-2.5,0-3.6-0.1c-1.1-0.1-2.2-0.1-3.2-0.2c-1.1-0.1-2.2-0.1-3.3-0.1c-1,0-2,0-2.9,0.1c-0.9,0.1-1.8,0.1-2.8,0.2c-1,0.1-2.2,0.1-3.5,0.1c-0.6,0-1-0.1-1.4-0.2c-0.4-0.1-0.6-0.4-0.6-0.7c0-0.4,0.2-0.7,0.6-0.9c0.4-0.3,0.9-0.4,1.7-0.5c1.7-0.3,2.8-0.8,3.4-1.6c0.6-0.8,0.9-2.1,0.9-3.8c-0.1-3.6-0.1-6.9-0.2-10c-0.1-3.1-0.2-6.1-0.3-9.1c-0.2-3-0.3-6.1-0.5-9.4c0-0.5-0.1-0.7-0.3-0.7c-0.2,0-0.5,0.3-0.7,0.7L405,115.5c-0.2,0.4-0.4,0.6-0.9,0.6c-0.4,0-0.7-0.2-0.8-0.6c-2.2-6.1-4.6-12-7-17.9c-2.5-5.9-5-12-7.7-18.5c-0.2-0.3-0.4-0.4-0.7-0.4c-0.3,0.1-0.5,0.3-0.5,0.6c-0.4,3.3-0.7,6.4-1,9.5c-0.3,3.1-0.5,6.1-0.6,9.1c-0.1,3-0.2,6.1-0.2,9.3c0,1.5,0.5,2.7,1.4,3.8c0.9,1.1,2.2,1.8,3.9,2.1c0.8,0.2,1.4,0.3,1.8,0.5c0.4,0.2,0.7,0.5,0.7,0.9c0,0.3-0.2,0.5-0.6,0.7c-0.4,0.2-0.9,0.2-1.6,0.2c-1.4,0-2.5,0-3.2-0.1c-0.7-0.1-1.4-0.1-1.9-0.2c-0.6,0-1.4,0-2.4,0c-1,0-1.9,0-2.6,0.1c-0.8,0.1-1.5,0.1-2.3,0.2c-0.8,0.1-1.6,0.1-2.6,0.1c-0.7,0-1.2-0.1-1.6-0.2c-0.4-0.1-0.6-0.4-0.6-0.7c0-0.4,0.2-0.6,0.7-0.8c0.4-0.2,1.1-0.4,1.8-0.6c1.2-0.3,2.3-1,3.1-1.9c0.9-1,1.4-2.4,1.7-4.1c0.5-3.9,1-7.8,1.4-11.8c0.4-4,0.8-7.7,1.1-11.3c0.3-3.6,0.5-6.8,0.6-9.6c0-0.4,0-0.8,0-1.2c0-0.5,0-0.9-0.1-1.3c0-0.6-0.1-1.1-0.3-1.6c-0.2-0.5-0.6-0.9-1.1-1.3c-0.8-0.7-1.7-1.2-2.5-1.4c-0.8-0.3-1.8-0.5-2.8-0.7c-0.6-0.1-1-0.3-1.4-0.6c-0.3-0.3-0.5-0.6-0.5-1c0-0.5,0.2-0.8,0.7-0.9c0.5-0.1,1.1-0.2,1.8-0.2c0.6,0,1.5,0,2.6,0.1c1.1,0.1,2.3,0.1,3.6,0.2c1.3,0.1,2.5,0.1,3.7,0.2c1.2,0.1,2.1,0.1,2.9,0.1c0.4,0,0.7,0.1,1,0.3c0.3,0.2,0.5,0.6,0.6,1c0.3,0.9,0.5,1.9,0.8,2.9c0.3,1,0.6,2,1,3l12,29.8c0.2,0.3,0.4,0.5,0.7,0.5c0.3,0.1,0.6-0.1,0.7-0.4l13.8-29.8c0.3-1.2,0.6-2.3,0.8-3.5c0.2-1.1,0.5-2.1,0.7-2.8c0.2-0.7,0.5-1,0.9-1h3c1.8,0,3.6-0.1,5.6-0.3c2-0.2,3.5-0.4,4.5-0.4c0.4,0,0.8,0.1,1.2,0.2c0.4,0.1,0.6,0.4,0.6,0.7c0,0.4-0.2,0.7-0.5,0.9s-0.8,0.4-1.5,0.7c-0.6,0.2-1.2,0.4-1.9,0.7c-0.7,0.3-1.3,0.5-1.9,0.8c-0.8,0.4-1.5,0.8-1.9,1.4c-0.5,0.6-0.7,1.4-0.6,2.4c0,3.7,0.1,7,0.2,10.1c0.2,3,0.3,5.9,0.4,8.7c0.1,2.7,0.3,5.5,0.5,8.2c0.2,2.7,0.4,5.7,0.5,8.8c0.1,1.5,0.6,2.7,1.6,3.5c1,0.9,2.4,1.5,4.2,1.8c0.7,0.2,1.3,0.3,1.7,0.5c0.4,0.2,0.6,0.5,0.6,0.9c0,0.3-0.2,0.5-0.5,0.7C439.7,115.5,439.2,115.5,438.6,115.5z M353.9,187.2c-2.3,2.5-5.1,4.6-8.4,6.1c-3.4,1.5-7.3,2.3-11.7,2.3c-3.5,0-6.8-0.6-9.9-1.8c-3.1-1.2-5.9-3-8.4-5.2c-2.4-2.3-4.4-4.9-5.8-8.1c-1.4-3.1-2.1-6.6-2.1-10.5c0-3.5,0.6-6.9,1.7-10.1c1.2-3.2,2.9-6.1,5.1-8.7c2.3-2.5,5.1-4.6,8.4-6.1c3.4-1.5,7.2-2.3,11.6-2.3c3.5,0,6.9,0.6,10,1.8c3.1,1.2,5.9,3,8.4,5.2c2.4,2.3,4.4,4.9,5.8,8.1c1.4,3.1,2.1,6.6,2.1,10.5c0,3.5-0.6,6.8-1.7,10.1C357.9,181.8,356.1,184.7,353.9,187.2z M350.2,162.4c-0.8-3.1-1.9-5.9-3.4-8.4c-1.5-2.5-3.4-4.4-5.7-5.8c-2.3-1.4-4.9-2.1-8-2.1c-3.5,0-6.5,0.8-8.9,2.5c-2.4,1.7-4.2,4-5.4,6.9c-1.2,3-1.8,6.4-1.8,10.3c0,3.5,0.4,6.8,1.1,10c0.7,3.1,1.8,5.9,3.3,8.4c1.5,2.5,3.4,4.4,5.6,5.8c2.3,1.4,4.9,2.1,8,2.1c3.6,0,6.6-0.8,9.1-2.5c2.4-1.7,4.2-4,5.4-7c1.2-3,1.8-6.5,1.8-10.4C351.4,168.8,351,165.5,350.2,162.4z M356.9,67c-1.5,0.4-2.6,1.1-3.1,2.1c-0.6,1-0.9,2.4-1,4.1c-0.3,4.3-0.4,8.2-0.5,11.7c-0.1,3.6-0.1,7.1-0.2,10.6c-0.1,4-1,7.6-2.8,10.8c-1.8,3.2-4.3,5.6-7.3,7.4c-3.1,1.8-6.5,2.6-10.4,2.6c-4.7,0-8.6-0.8-11.7-2.5c-3.2-1.7-5.5-4-7.2-7c-1.6-3-2.4-6.6-2.4-10.6V72.9c0-1.7-0.3-3.1-1-4c-0.7-1-1.6-1.6-2.6-1.8c-1.7-0.5-2.5-1-2.5-1.7c0-0.4,0.2-0.6,0.6-0.8c0.4-0.2,0.9-0.2,1.6-0.2c1.3,0,2.7,0.1,4.1,0.2c1.4,0.1,2.8,0.2,4.3,0.2c1.3,0,2.6,0,4-0.1c1.4-0.1,2.6-0.1,3.7-0.1c0.7,0,1.2,0.1,1.6,0.2c0.4,0.2,0.6,0.4,0.6,0.8c0,0.4-0.3,0.7-0.8,1c-0.5,0.2-1.3,0.5-2.1,0.8c-0.7,0.3-1.4,0.9-2.1,1.8c-0.7,1-1,2.3-1,3.9v21.3c0,3.9,0.6,7.2,1.9,9.7c1.3,2.5,3.1,4.4,5.4,5.6c2.3,1.2,4.8,1.8,7.7,1.8c5.1,0,8.9-1.7,11.3-5.1c2.4-3.4,3.6-8.1,3.6-14c0-1.2,0-2.7,0-4.5c0-1.8,0-3.7,0-5.8c0-2-0.1-3.9-0.1-5.8c-0.1-1.7-0.2-3.2-0.4-4.4c-0.2-1.2-0.6-2.2-1.1-3.1c-0.5-0.8-1.2-1.4-2-1.6c-0.5-0.2-1.1-0.4-1.7-0.7c-0.6-0.3-1-0.6-1-1c0-0.3,0.2-0.5,0.6-0.7c0.4-0.2,1-0.2,1.6-0.2c1.4,0,2.6,0,3.4,0.1c0.8,0.1,1.8,0.1,3,0.1c0.9,0,1.7,0,2.4-0.1c0.7-0.1,1.4-0.1,2.1-0.2c0.7-0.1,1.4-0.1,2.1-0.1c0.6,0,1.1,0.1,1.6,0.2c0.4,0.2,0.6,0.4,0.6,0.8C359.3,66.1,358.5,66.6,356.9,67z M281.5,111.3c1,0.8,2.4,1.4,4.4,1.8c0.8,0.2,1.3,0.3,1.7,0.5c0.4,0.2,0.5,0.5,0.5,0.9c0,0.3-0.2,0.5-0.5,0.7c-0.3,0.2-0.8,0.2-1.4,0.2c-1.3,0-2.5,0-3.6-0.1c-1.1-0.1-2.1-0.1-3.1-0.2c-1-0.1-2.1-0.1-3.2-0.1c-1.2,0-2.4,0-3.5,0.1c-1.1,0.1-2.2,0.1-3.3,0.2c-1.1,0.1-2.4,0.1-3.7,0.1c-0.6,0-1-0.1-1.4-0.2c-0.4-0.1-0.6-0.4-0.6-0.7c0-0.7,0.8-1.2,2.3-1.5c2-0.4,3.4-0.9,4.4-1.7c0.9-0.8,1.4-2,1.4-3.8V72.5c0-1.8-0.4-3-1.1-3.8c-0.7-0.8-2.1-1.3-4-1.7c-1.5-0.3-2.3-0.8-2.3-1.6c0-0.4,0.2-0.6,0.5-0.8c0.4-0.2,0.8-0.2,1.4-0.2c1.3,0,2.6,0,3.6,0.1c1.1,0.1,2.1,0.1,3.1,0.2c1,0.1,2,0.1,3.2,0.1c1.1,0,2.1,0,3.1,0c1,0,1.9-0.1,3-0.1c1-0.1,2.2-0.1,3.5-0.1c0.6,0,1.1,0.1,1.5,0.2c0.4,0.1,0.5,0.4,0.5,0.7c0,0.4-0.2,0.7-0.6,1c-0.4,0.2-0.9,0.4-1.7,0.6c-2,0.5-3.4,1.1-4.2,1.8c-0.8,0.7-1.2,2-1.2,3.7v35.1C280,109.3,280.5,110.6,281.5,111.3z M270.4,143.9c1,0.1,2,0.1,3.2,0.1c1.1,0,2.1,0,3.1,0c1,0,1.9-0.1,3-0.1c1-0.1,2.2-0.1,3.5-0.1c0.6,0,1.1,0.1,1.5,0.2c0.4,0.1,0.5,0.4,0.5,0.7c0,0.4-0.2,0.7-0.6,1c-0.4,0.2-0.9,0.4-1.7,0.6c-2,0.5-3.4,1.1-4.2,1.8c-0.8,0.7-1.2,2-1.2,3.7v35.1c0,1.7,0.5,3,1.5,3.7c1,0.8,2.4,1.4,4.4,1.8c0.8,0.2,1.3,0.3,1.7,0.5c0.4,0.2,0.5,0.5,0.5,0.9c0,0.3-0.2,0.5-0.5,0.7c-0.3,0.2-0.8,0.2-1.4,0.2c-1.3,0-2.5,0-3.6-0.1c-1.1-0.1-2.1-0.1-3.1-0.2c-1-0.1-2.1-0.1-3.2-0.1c-1.2,0-2.4,0-3.5,0.1c-1.1,0.1-2.2,0.1-3.3,0.2c-1.1,0.1-2.4,0.1-3.7,0.1c-0.6,0-1-0.1-1.4-0.2c-0.4-0.1-0.6-0.4-0.6-0.7c0-0.7,0.8-1.2,2.3-1.5c2-0.4,3.4-0.9,4.4-1.7c0.9-0.8,1.4-2,1.4-3.8v-35.1c0-1.8-0.4-3-1.1-3.8c-0.7-0.8-2.1-1.3-4-1.7c-1.5-0.3-2.3-0.8-2.3-1.6c0-0.4,0.2-0.6,0.5-0.8c0.4-0.2,0.8-0.2,1.4-0.2c1.3,0,2.6,0,3.6,0.1C268.4,143.8,269.4,143.8,270.4,143.9z M245.2,115.5c-1.3,0-2.5,0-3.6-0.1c-1.1-0.1-2.2-0.1-3.2-0.2c-1.1-0.1-2.2-0.1-3.3-0.1c-1,0-2,0-2.9,0.1c-0.9,0.1-1.8,0.1-2.8,0.2c-1,0.1-2.2,0.1-3.5,0.1c-0.6,0-1.1-0.1-1.4-0.2c-0.4-0.1-0.6-0.4-0.6-0.7c0-0.4,0.2-0.7,0.6-0.9c0.4-0.3,0.9-0.4,1.7-0.5c1.7-0.3,2.8-0.8,3.4-1.6c0.6-0.8,0.9-2.1,0.9-3.8c-0.1-3.6-0.1-6.9-0.2-10c-0.1-3.1-0.2-6.1-0.4-9.1c-0.2-3-0.3-6.1-0.5-9.4c0-0.5-0.1-0.7-0.3-0.7c-0.2,0-0.5,0.3-0.7,0.7l-16.8,36.1c-0.2,0.4-0.4,0.6-0.9,0.6c-0.4,0-0.7-0.2-0.8-0.6c-2.2-6.1-4.6-12-7-17.9c-2.5-5.9-5-12-7.7-18.5c-0.2-0.3-0.4-0.4-0.7-0.4c-0.3,0.1-0.5,0.3-0.5,0.6c-0.4,3.3-0.7,6.4-1,9.5s-0.5,6.1-0.6,9.1c-0.1,3-0.2,6.1-0.2,9.3c0,1.5,0.5,2.7,1.4,3.8c0.9,1.1,2.2,1.8,3.9,2.1c0.8,0.2,1.4,0.3,1.8,0.5c0.4,0.2,0.7,0.5,0.7,0.9c0,0.3-0.2,0.5-0.6,0.7c-0.4,0.2-0.9,0.2-1.6,0.2c-1.4,0-2.5,0-3.2-0.1c-0.7-0.1-1.4-0.1-1.9-0.2c-0.6,0-1.4,0-2.4,0c-1,0-1.9,0-2.6,0.1c-0.8,0.1-1.5,0.1-2.3,0.2c-0.8,0.1-1.6,0.1-2.6,0.1c-0.7,0-1.2-0.1-1.6-0.2c-0.4-0.1-0.6-0.4-0.6-0.7c0-0.4,0.2-0.6,0.7-0.8c0.4-0.2,1-0.4,1.8-0.6c1.2-0.3,2.3-1,3.1-1.9c0.9-1,1.4-2.4,1.7-4.1c0.5-3.9,1-7.8,1.4-11.8c0.4-4,0.8-7.7,1.1-11.3c0.3-3.6,0.5-6.8,0.6-9.6c0-0.4,0-0.8,0-1.2c0-0.5,0-0.9-0.1-1.3c0-0.6-0.1-1.1-0.3-1.6c-0.2-0.5-0.6-0.9-1.1-1.3c-0.8-0.7-1.7-1.2-2.5-1.4c-0.8-0.3-1.8-0.5-2.8-0.7c-0.6-0.1-1-0.3-1.4-0.6c-0.3-0.3-0.5-0.6-0.5-1c0-0.5,0.2-0.8,0.7-0.9c0.5-0.1,1.1-0.2,1.8-0.2c0.6,0,1.5,0,2.6,0.1c1.1,0.1,2.3,0.1,3.6,0.2c1.3,0.1,2.5,0.1,3.7,0.2c1.2,0.1,2.1,0.1,2.9,0.1c0.4,0,0.7,0.1,1,0.3c0.3,0.2,0.5,0.6,0.6,1c0.3,0.9,0.5,1.9,0.8,2.9c0.3,1,0.6,2,1,3l12,29.8c0.2,0.3,0.4,0.5,0.7,0.5c0.3,0.1,0.6-0.1,0.7-0.4l13.8-29.8c0.3-1.2,0.6-2.3,0.8-3.5c0.2-1.1,0.5-2.1,0.7-2.8c0.2-0.7,0.5-1,0.9-1h3c1.8,0,3.6-0.1,5.6-0.3c2-0.2,3.5-0.4,4.5-0.4c0.4,0,0.8,0.1,1.2,0.2c0.4,0.1,0.6,0.4,0.6,0.7c0,0.4-0.2,0.7-0.5,0.9s-0.8,0.4-1.5,0.7c-0.6,0.2-1.2,0.4-1.9,0.7c-0.7,0.3-1.3,0.5-1.9,0.8c-0.8,0.4-1.5,0.8-1.9,1.4c-0.5,0.6-0.7,1.4-0.6,2.4c0,3.7,0.1,7,0.2,10.1c0.2,3,0.3,5.9,0.4,8.7c0.1,2.7,0.3,5.5,0.5,8.2c0.2,2.7,0.4,5.7,0.5,8.8c0.1,1.5,0.6,2.7,1.6,3.5c1,0.9,2.4,1.5,4.2,1.8c0.7,0.2,1.3,0.3,1.7,0.5c0.4,0.2,0.6,0.5,0.6,0.9c0,0.3-0.2,0.5-0.5,0.7C246.3,115.5,245.8,115.5,245.2,115.5z M164.1,111.2c-0.4,1.2-0.7,2.3-1,3.2c-0.2,0.4-0.3,0.7-0.5,0.9c-0.2,0.2-0.5,0.3-0.8,0.3c-1.9,0-3.8,0-5.8-0.1c-2-0.1-4.1-0.1-6.2-0.2c-2.1-0.1-4.3-0.1-6.4-0.2c-2.1-0.1-4.2-0.1-6.3-0.1c-1.1,0-2.1,0-3.1,0.1c-1,0.1-2,0.2-3,0.2c-1,0.1-2.2,0.1-3.5,0.1c-0.6,0-1.1-0.1-1.5-0.2c-0.4-0.2-0.5-0.4-0.5-0.7c0-0.7,0.8-1.2,2.3-1.5c1.9-0.4,3.3-1,4.2-1.7c0.9-0.8,1.3-2,1.3-3.8V72.5c0-1.8-0.4-3-1.1-3.8c-0.7-0.8-2-1.3-4-1.7c-0.8-0.2-1.3-0.4-1.7-0.6c-0.4-0.3-0.5-0.6-0.5-0.9c0-0.3,0.2-0.6,0.5-0.7c0.4-0.2,0.9-0.3,1.5-0.3c1.7,0,3.3,0,4.6,0.1c1.4,0.1,2.7,0.1,4,0.2c1.3,0.1,2.8,0.1,4.3,0.1c2.1,0,4.3,0,6.6,0c2.3,0,4.4-0.1,6.3-0.1c1.8,0,3.2,0,4.4-0.1c1.2-0.1,1.9-0.1,2.1-0.1c0.3,0,0.6,0.1,1,0.2c0.3,0.1,0.5,0.4,0.6,0.7c0.3,1.6,0.5,3.2,0.8,4.7c0.3,1.5,0.4,2.9,0.4,4c0,0.5-0.1,0.9-0.4,1c-0.2,0.2-0.5,0.3-0.7,0.3c-0.3,0-0.5-0.1-0.6-0.2c-0.2-0.2-0.3-0.4-0.5-0.7c-0.4-1-0.7-2-1-2.8c-0.3-0.9-0.7-1.5-1.1-1.9c-0.7-0.7-1.5-1.3-2.3-1.6c-0.9-0.4-1.9-0.5-3-0.5h-8.7c-0.7,0-1.4,0.2-2.1,0.7c-0.8,0.5-1.1,1.2-1.1,2.1v15.9c0,0.5,0.2,0.9,0.5,1.2c0.3,0.3,0.7,0.5,1.1,0.5h7.4c1.5,0,2.5-0.3,3.1-1c0.6-0.7,1-1.7,1.4-3.1c0.4-1,0.9-1.6,1.5-1.6c0.3,0,0.5,0.1,0.7,0.4c0.2,0.2,0.3,0.6,0.3,1c0,0.3,0,0.8-0.1,1.6c-0.1,0.7-0.1,1.5-0.2,2.3c-0.1,0.8-0.1,1.4-0.1,1.9c0,0.6,0,1.3,0,2.1c0,0.8,0.1,1.6,0.1,2.4c0.1,0.8,0.1,1.3,0.1,1.7c0.1,0.5,0,0.8-0.1,1.1c-0.1,0.3-0.3,0.4-0.6,0.4c-0.8,0-1.5-0.8-1.9-2.3c-0.3-1.3-0.7-2.4-1.3-3c-0.5-0.7-1.3-1-2.4-1h-7.2c-0.8,0-1.4,0.1-1.8,0.4c-0.4,0.3-0.6,0.8-0.6,1.6v14.8c0,1.8,0.4,3.1,1.2,3.8c0.8,0.7,2,1,3.6,1h6.1c1.4,0,2.7-0.1,3.8-0.3c1.1-0.2,2-0.6,2.8-1.2c0.9-0.6,1.7-1.4,2.3-2.4c0.7-1,1.4-2.2,2.1-3.7c0.2-0.3,0.4-0.6,0.6-0.7c0.2-0.2,0.4-0.2,0.7-0.2c0.3,0,0.5,0.1,0.7,0.3c0.1,0.2,0.2,0.5,0.2,0.9c0,0.6-0.1,1.4-0.4,2.6C164.8,108.8,164.5,109.9,164.1,111.2z M111,187c-2.5,2.5-5.4,4.5-8.7,5.9c-3.3,1.4-7,2.1-11,2.1c-1,0-2.4-0.1-4.3-0.2c-1.9-0.1-3.9-0.2-6-0.3c-2.1-0.1-4-0.1-5.7-0.1c-1,0-2,0-2.9,0.1c-0.9,0.1-1.9,0.1-2.8,0.2c-1,0.1-2.1,0.1-3.4,0.1c-0.6,0-1-0.1-1.4-0.2c-0.4-0.2-0.6-0.4-0.6-0.8c0-0.4,0.2-0.7,0.5-0.9c0.4-0.2,0.9-0.3,1.7-0.5c2-0.4,3.3-0.9,4.1-1.7c0.8-0.8,1.1-2,1.1-3.8v-35.1c0-1.8-0.4-3-1.1-3.8c-0.8-0.8-2.1-1.3-4.1-1.7c-0.8-0.2-1.3-0.3-1.7-0.5c-0.4-0.2-0.5-0.5-0.5-0.9c0-0.4,0.2-0.6,0.6-0.8c0.4-0.2,0.9-0.3,1.4-0.3c1.3,0,2.4,0,3.4,0.1c1,0.1,1.9,0.1,2.9,0.1c0.9,0,2,0,3.2,0c0.8,0,1.9,0,3.2-0.1c1.3-0.1,2.7-0.1,4.1-0.2c1.5-0.1,2.8-0.2,4-0.2c1.2-0.1,2.2-0.1,2.9-0.1c4.8,0,9,0.6,12.6,1.9c3.6,1.2,6.6,3,9,5.2c2.4,2.3,4.2,4.9,5.4,7.9c1.2,3,1.8,6.3,1.8,9.8c0,3.6-0.7,7.1-2,10.3C115.3,181.6,113.4,184.4,111,187z M107.7,159.8c-1.1-2.9-2.6-5.3-4.4-7.3c-1.8-2-4-3.6-6.4-4.6c-2.4-1.1-4.9-1.6-7.6-1.6c-2,0-3.7,0.1-5.2,0.2c-1.4,0.1-2.5,0.5-3.2,1c-0.7,0.6-1.1,1.5-1.1,2.9v34.4c0,2,0.5,3.5,1.4,4.5c1,1,2.2,1.7,3.8,2.1c1.6,0.4,3.3,0.5,5.2,0.5c3.8,0,7.2-0.9,10-2.8c2.8-1.9,5.1-4.5,6.6-7.8c1.6-3.3,2.3-7.2,2.3-11.5C109.3,166,108.8,162.7,107.7,159.8z M105.6,116.6c-1.1,0.2-2.2,0.3-3.3,0.3c-1.9,0-3.5-0.2-5-0.6c-1.5-0.4-2.8-1-4-1.8c-1.2-0.8-2.2-1.7-3.1-2.9c-1.2-1.6-2.3-3.1-3.5-4.5c-1.1-1.5-2.3-3.1-3.5-4.9c-1.2-1.8-2.6-4.1-4.2-6.7c-0.7-1.3-1.6-2.3-2.9-2.9c-0.9-0.5-1.8-0.8-2.7-1c-0.9-0.2-1.6-0.3-2.2-0.3c-0.4,0-0.6,0.1-0.8,0.4c-0.2,0.3-0.3,0.7-0.3,1.1v14.1c0,1.7,0.4,3,1.2,4.1c0.8,1.1,2.3,1.8,4.3,2.1c0.7,0.2,1.3,0.3,1.7,0.5c0.4,0.2,0.6,0.5,0.6,0.9c0,0.3-0.2,0.5-0.5,0.7c-0.4,0.2-0.9,0.2-1.5,0.2c-1.3,0-2.4,0-3.5-0.1c-1-0.1-2-0.2-2.9-0.2c-0.9-0.1-1.9-0.1-2.8-0.1c-1.2,0-2.4,0-3.5,0.1c-1.1,0.1-2.2,0.2-3.3,0.2c-1.1,0.1-2.3,0.1-3.7,0.1c-0.6,0-1-0.1-1.4-0.2c-0.4-0.1-0.6-0.4-0.6-0.7c0-0.7,0.8-1.2,2.3-1.5c2-0.4,3.4-0.9,4.2-1.7c0.9-0.8,1.3-2.1,1.3-3.9V73.8c0-1.8-0.1-3.1-0.3-4c-0.2-0.9-0.6-1.6-1.3-1.9c-0.6-0.4-1.7-0.7-3.1-0.9c-0.8-0.1-1.4-0.3-1.8-0.6c-0.4-0.3-0.5-0.6-0.5-1c0-0.3,0.2-0.6,0.6-0.7c0.4-0.2,0.9-0.3,1.4-0.3c1.5,0,2.7,0,3.5,0.1c0.8,0.1,1.6,0.1,2.4,0.1c0.8,0,1.7,0,2.8,0c1,0,2,0,2.8-0.1c0.8-0.1,1.8-0.2,2.8-0.2c1-0.1,2.4-0.1,4-0.1c5.8,0,10.2,1,13.3,3.1c3.1,2.1,4.6,5.3,4.6,9.5c0,2.3-0.5,4.3-1.4,6c-1,1.7-2.2,3-3.6,4.1c-1.5,1.1-2.9,1.9-4.4,2.6c-0.2,0.1-0.3,0.2-0.3,0.3c0,0.2,0.1,0.4,0.2,0.7c1.6,2.4,3.1,4.7,4.6,6.8c1.5,2.2,3.1,4.2,4.7,6.2c1.7,2,3.6,4,5.8,6c1.5,1.3,3,2.2,4.5,2.4c1.6,0.3,3.3,0.4,5.1,0.4c0.8,0,1.2,0.4,1.2,1.1c0,0.9-0.4,1.6-1.2,2.1C107.7,116,106.8,116.3,105.6,116.6z M84.6,78.2c0-2.2-0.3-4.2-0.9-5.9c-0.6-1.7-1.6-3-3.1-4c-1.5-1-3.7-1.4-6.5-1.4c-1.5,0-2.4,0.5-3,1.5c-0.5,1-0.8,2.9-0.9,5.7c-0.1,1.2-0.1,2.9-0.1,5c0,2.1,0,4.5,0,7.4c0,1.2,0.3,2,1,2.3c0.7,0.3,1.6,0.5,2.7,0.5c2.2,0,4.1-0.5,5.7-1.5c1.6-1,2.8-2.4,3.7-4C84.2,82,84.6,80.2,84.6,78.2z M33.3,93.6c-2.6,1.6-6,2.4-10.1,2.4c-1.2,0-2.1-0.2-2.8-0.5c-0.6-0.4-1-0.7-1-1.1c0-0.3,0.2-0.6,0.5-0.8c0.3-0.2,0.6-0.3,0.9-0.3c0.4,0,0.8,0,1.3,0.1c0.5,0.1,1.2,0.1,2.1,0.1c2.8,0,4.9-1.3,6.3-3.8c1.4-2.5,2.1-6,2.1-10.3c0-4.4-1.1-7.6-3.2-9.6c-2.2-2-4.9-3.1-8.4-3.1c-1.5,0-2.6,0.3-3.5,0.8s-1.3,1.4-1.3,2.7l-0.1,36.8c0,1.8,0.4,3.1,1.2,4.2c0.8,1,2.3,1.7,4.3,2.1c0.7,0.2,1.3,0.3,1.7,0.5c0.4,0.2,0.6,0.5,0.6,0.9c0,0.3-0.2,0.5-0.5,0.7c-0.4,0.2-0.9,0.2-1.5,0.2c-1.3,0-2.4,0-3.5-0.1c-1-0.1-2-0.2-2.9-0.2c-0.9-0.1-1.9-0.1-2.8-0.1c-1.2,0-2.4,0-3.5,0.1c-1.1,0.1-2.2,0.2-3.3,0.2c-1.1,0.1-2.3,0.1-3.7,0.1c-0.6,0-1-0.1-1.4-0.2c-0.4-0.1-0.6-0.4-0.6-0.7c0-0.7,0.8-1.2,2.3-1.5c2-0.4,3.4-0.9,4.2-1.7c0.9-0.8,1.3-2.1,1.3-3.9V74c0-2.2-0.3-3.8-0.9-4.9C6.5,68,5.3,67.3,3.4,67c-0.8-0.2-1.4-0.4-1.8-0.6C1.2,66.1,1,65.8,1,65.4c0-0.3,0.2-0.6,0.6-0.7c0.4-0.2,0.9-0.3,1.4-0.3c1.3,0,2.5,0,3.3,0c0.9,0,1.7,0.1,2.6,0.1c0.8,0.1,1.8,0.1,2.8,0.1c1.1,0,2.1-0.1,3.2-0.2c1-0.1,2.1-0.2,3.1-0.3c1-0.1,2-0.2,3.1-0.2c6.1,0,10.9,1.3,14.5,3.8c3.6,2.5,5.4,6,5.4,10.5c0,3.2-0.6,6.1-1.9,8.8C37.9,89.8,35.9,91.9,33.3,93.6z M3.2,192.4c1.9-0.4,3.3-1,4.2-1.7c0.9-0.8,1.3-2,1.3-3.8v-35.1c0-1.8-0.4-3-1.1-3.8c-0.7-0.8-2-1.3-4-1.7c-0.8-0.2-1.3-0.4-1.7-0.6c-0.4-0.3-0.5-0.6-0.5-0.9c0-0.3,0.2-0.6,0.5-0.7c0.4-0.2,0.9-0.3,1.5-0.3c1.7,0,3.3,0,4.6,0.1c1.4,0.1,2.7,0.1,4,0.2c1.3,0.1,2.8,0.1,4.3,0.1c2.1,0,4.3,0,6.6,0c2.3,0,4.4-0.1,6.3-0.1c1.8,0,3.2,0,4.4-0.1c1.2-0.1,1.9-0.1,2.1-0.1c0.3,0,0.6,0.1,1,0.2c0.3,0.1,0.5,0.4,0.6,0.7c0.3,1.6,0.5,3.2,0.8,4.7c0.3,1.5,0.4,2.9,0.4,4c0,0.5-0.1,0.9-0.3,1.1c-0.2,0.2-0.5,0.3-0.7,0.3c-0.3,0-0.5-0.1-0.6-0.2c-0.2-0.2-0.3-0.4-0.5-0.7c-0.4-1-0.7-2-1-2.8c-0.3-0.9-0.7-1.5-1.1-1.9c-0.7-0.7-1.5-1.3-2.3-1.6c-0.9-0.4-1.9-0.5-3-0.5h-8.7c-0.7,0-1.4,0.2-2.1,0.7c-0.8,0.5-1.1,1.2-1.1,2.1v15.9c0,0.5,0.2,0.9,0.5,1.2c0.3,0.3,0.7,0.5,1.1,0.5h7.4c1.5,0,2.5-0.3,3.1-1c0.6-0.7,1-1.7,1.4-3.1c0.4-1,0.9-1.6,1.5-1.6c0.3,0,0.5,0.1,0.7,0.4c0.2,0.2,0.3,0.6,0.3,1c0,0.3,0,0.8-0.1,1.6c-0.1,0.7-0.1,1.5-0.2,2.3c-0.1,0.8-0.1,1.4-0.1,1.9c0,0.6,0,1.3,0,2.1c0,0.8,0.1,1.6,0.1,2.4c0.1,0.8,0.1,1.3,0.1,1.7c0.1,0.5,0,0.8-0.1,1.1c-0.1,0.3-0.3,0.4-0.6,0.4c-0.8,0-1.5-0.8-1.9-2.3c-0.3-1.3-0.7-2.4-1.3-3c-0.5-0.7-1.3-1-2.4-1h-7.2c-0.8,0-1.4,0.1-1.8,0.4c-0.4,0.3-0.6,0.8-0.6,1.6v14.8c0,1.8,0.4,3.1,1.2,3.8c0.8,0.7,2,1.1,3.6,1.1h6.1c1.5,0,2.7-0.1,3.8-0.3c1.1-0.2,2-0.6,2.8-1.2c0.9-0.6,1.7-1.4,2.3-2.4c0.7-1,1.4-2.2,2.1-3.7c0.2-0.3,0.4-0.6,0.6-0.7c0.2-0.2,0.4-0.2,0.7-0.2c0.3,0,0.5,0.1,0.7,0.4c0.1,0.2,0.2,0.5,0.2,0.9c0,0.6-0.1,1.4-0.4,2.6c-0.3,1.1-0.6,2.3-1,3.6c-0.4,1.2-0.7,2.3-1,3.2c-0.2,0.4-0.3,0.7-0.5,0.9s-0.5,0.3-0.8,0.3c-1.9,0-3.8,0-5.8-0.1c-2-0.1-4.1-0.1-6.2-0.2c-2.1-0.1-4.3-0.1-6.4-0.2c-2.1-0.1-4.2-0.1-6.3-0.1c-1.1,0-2.1,0-3.1,0.1c-1,0.1-2,0.2-3,0.2c-1,0.1-2.2,0.1-3.5,0.1c-0.6,0-1.1-0.1-1.5-0.2c-0.4-0.2-0.5-0.4-0.5-0.7C0.9,193.2,1.7,192.8,3.2,192.4z M142.8,192.4c2-0.4,3.4-0.9,4.4-1.7c0.9-0.8,1.4-2,1.4-3.8v-35.1c0-1.8-0.4-3-1.1-3.8c-0.7-0.8-2.1-1.3-4-1.7c-1.5-0.3-2.3-0.8-2.3-1.6c0-0.4,0.2-0.6,0.5-0.8c0.4-0.2,0.8-0.2,1.4-0.2c1.3,0,2.6,0,3.6,0.1c1.1,0.1,2.1,0.1,3.1,0.2c1,0.1,2,0.1,3.2,0.1c1.1,0,2.1,0,3.1,0c1,0,1.9-0.1,3-0.1c1-0.1,2.2-0.1,3.5-0.1c0.6,0,1.1,0.1,1.5,0.2c0.4,0.1,0.5,0.4,0.5,0.7c0,0.4-0.2,0.7-0.6,1c-0.4,0.2-0.9,0.4-1.7,0.6c-2,0.5-3.4,1.1-4.2,1.8c-0.8,0.7-1.2,2-1.2,3.7v35.1c0,1.7,0.5,3,1.5,3.7c1,0.8,2.4,1.4,4.4,1.8c0.8,0.2,1.3,0.3,1.7,0.5c0.4,0.2,0.5,0.5,0.5,0.9c0,0.3-0.2,0.5-0.5,0.7c-0.3,0.2-0.8,0.2-1.4,0.2c-1.3,0-2.5,0-3.6-0.1c-1.1-0.1-2.1-0.1-3.1-0.2c-1-0.1-2.1-0.1-3.2-0.1c-1.2,0-2.4,0-3.5,0.1c-1.1,0.1-2.2,0.1-3.3,0.2c-1.1,0.1-2.4,0.1-3.7,0.1c-0.6,0-1-0.1-1.4-0.2c-0.4-0.1-0.6-0.4-0.6-0.7C140.5,193.2,141.3,192.7,142.8,192.4z M189.6,146.7c0.4-1.2,0.6-2.7,0.9-4.4c0.1-0.8,0.3-1.3,0.6-1.6c0.3-0.2,0.6-0.3,0.9-0.3c0.3,0,0.6,0.3,1.1,1c0.4,0.6,0.8,1.2,1,1.6c0.4,0.5,1.2,0.8,2.3,1.1c1.1,0.3,2.2,0.4,3.2,0.4l28.1-0.1c1.6,0,2.9-0.1,4-0.3c1.1-0.2,1.9-0.5,2.6-0.8c0.7-0.4,1.3-0.8,1.7-1.2c0.4-0.4,1-0.7,1.6-0.7c0.2,0,0.4,0.2,0.5,0.5c0.1,0.3,0.2,0.7,0.2,1.1c0,0.2,0,0.5-0.1,0.9c-0.1,0.4-0.1,0.8-0.2,1c-0.2,1-0.4,1.8-0.6,2.3c-0.2,0.6-0.3,1.1-0.4,1.6c-0.1,0.5-0.1,1.1-0.1,1.9v1.1c0,0.6-0.1,1.2-0.3,1.8c-0.2,0.6-0.5,0.9-0.9,0.9c-0.4,0-0.8-0.3-1-0.8c-0.3-0.5-0.5-1.3-0.8-2.4c-0.3-1.3-1-2.4-2.1-3.1c-1.1-0.7-2.8-1.1-5.2-1.1h-6.5c-1,0-1.8,0.2-2.4,0.5c-0.6,0.3-0.9,1.1-1.1,2.3c-0.2,1.2-0.3,3.2-0.3,5.9v30.8c0,1.8,0.5,3.1,1.5,3.9c1,0.8,2.5,1.5,4.5,1.9c0.7,0.2,1.3,0.3,1.7,0.5c0.4,0.2,0.6,0.5,0.6,0.9c0,0.3-0.2,0.5-0.5,0.7c-0.4,0.2-0.9,0.2-1.5,0.2c-1.3,0-2.5,0-3.6-0.1c-1.1-0.1-2.2-0.1-3.2-0.2c-1-0.1-2.1-0.1-3.3-0.1c-1.2,0-2.4,0-3.5,0.1c-1.1,0.1-2.2,0.1-3.3,0.2c-1.1,0.1-2.4,0.1-3.7,0.1c-0.6,0-1.1-0.1-1.5-0.2c-0.4-0.1-0.6-0.4-0.6-0.7c0-0.4,0.2-0.7,0.6-0.9c0.4-0.2,1-0.4,1.7-0.6c2-0.4,3.4-1,4.4-1.8c1-0.8,1.5-2.1,1.5-4v-30.8c0-2.3-0.1-4-0.2-5.2c-0.1-1.2-0.3-2-0.5-2.4c-0.2-0.4-0.5-0.7-0.9-0.8c-0.6-0.2-1.3-0.2-2.1-0.3c-0.8,0-1.7,0-2.7,0h-3c-1.3,0-2.7,0.3-4,0.9c-1.3,0.6-2.3,1.4-3,2.5c-0.2,0.3-0.5,0.7-0.9,1.3c-0.4,0.5-0.8,1-1.3,1.4c-0.5,0.4-0.9,0.6-1.4,0.6c-0.3,0-0.5-0.1-0.6-0.3c-0.1-0.2-0.2-0.5-0.2-0.8c0-0.6,0.2-1.1,0.5-1.7C188.7,149.3,189.3,147.9,189.6,146.7z"/><path fill-rule="evenodd" clip-rule="evenodd" fill="#BEAE92" d="M441.1,2.7c-1,0.2-1.7,0.5-2.1,0.8c-0.4,0.3-0.6,0.9-0.7,1.7c0,0.7,0,1.6,0,2.8c0,1.1,0,2.4-0.1,3.7c0,1.3-0.1,2.7-0.1,4.1c0,1.4-0.1,2.7-0.1,4.1c0,1.3,0,2.5,0,3.6c0,0.7,0,1.4,0.1,2.1c0.1,0.7,0.1,1.4,0.2,1.9c0.1,0.6,0.1,1,0.1,1.2c0,0.6-0.1,1.1-0.3,1.3c-0.2,0.2-0.5,0.3-0.8,0.3c-0.3,0-0.9-0.2-1.7-0.7c-0.8-0.4-1.6-1.2-2.5-2.3c-0.5-0.5-1.1-1.2-1.8-2c-0.7-0.8-1.5-1.7-2.3-2.6c-0.9-1-1.7-2-2.7-3c-0.9-1-1.8-2.1-2.8-3.1c-0.9-1-1.8-2-2.7-3s-1.7-1.8-2.4-2.6c-0.7-0.8-1.3-1.5-1.8-2.1c-0.1-0.1-0.2-0.3-0.4-0.4c-0.1-0.1-0.2-0.2-0.3-0.2c-0.1,0-0.2,0.1-0.3,0.3c-0.1,0.2-0.1,0.4-0.1,0.6c0,1.3,0,2.9,0,4.7c0,1.8,0,3.7,0,5.5s0,3.6,0,5.2c0,0.9,0.3,1.6,0.8,2.2c0.5,0.6,1.3,1,2.5,1.3c0.3,0.1,0.6,0.2,0.9,0.3c0.2,0.1,0.4,0.3,0.4,0.5c0,0.2-0.1,0.3-0.3,0.4c-0.2,0.1-0.5,0.1-0.8,0.1c-0.8,0-1.4,0-1.9,0c-0.5,0-0.9-0.1-1.3-0.1c-0.4,0-0.9,0-1.4,0c-0.6,0-1.1,0-1.6,0c-0.5,0-0.9,0.1-1.3,0.1c-0.4,0-0.7,0.1-1.1,0.1c-0.3,0-0.5-0.1-0.8-0.2c-0.2-0.1-0.3-0.2-0.3-0.4c0-0.2,0.1-0.4,0.3-0.5s0.5-0.3,0.9-0.4c0.8-0.2,1.3-0.7,1.7-1.3c0.4-0.6,0.6-1.4,0.7-2.2c0.1-1.1,0.2-2.5,0.3-4.3c0.1-1.8,0.2-3.8,0.3-6c0.1-2.2,0.2-4.5,0.2-6.9c0-1.5-0.4-2.6-1.1-3.3c-0.8-0.7-1.7-1.2-2.9-1.6c-0.2-0.1-0.5-0.2-0.8-0.3c-0.3-0.2-0.5-0.4-0.5-0.6s0.1-0.4,0.3-0.5c0.2-0.1,0.5-0.1,0.7-0.1c0.6,0,1.2,0,1.8,0s1.2,0.1,1.8,0.1c0.6,0,1.3,0,2,0.1c0.7,0,1.4,0,2.2,0c0.3,0,0.5,0.1,0.6,0.2c0.1,0.1,0.3,0.2,0.4,0.4c0.5,0.5,1.1,1.2,1.8,2.1c0.7,0.8,1.5,1.7,2.4,2.7c0.9,1,1.7,2,2.7,3.1c0.9,1.1,1.9,2.2,2.8,3.3c0.9,1.1,1.8,2.1,2.7,3.1c0.9,1,1.7,1.9,2.4,2.7c0.7,0.8,1.3,1.5,1.8,2c0.1,0.1,0.3,0.3,0.4,0.4c0.2,0.2,0.3,0.3,0.4,0.3c0.2,0,0.4-0.2,0.4-0.7c0-0.8,0-1.7,0-2.9s0-2.5,0-3.9c0-1.4,0-2.9,0-4.4c0-1.5,0-2.9-0.1-4.3c0-0.7-0.3-1.3-0.9-1.7c-0.6-0.4-1.3-0.7-2.1-0.9c-0.3-0.1-0.7-0.2-1-0.3c-0.3-0.1-0.5-0.3-0.5-0.6c0-0.2,0.2-0.3,0.5-0.4c0.3-0.1,0.6-0.1,0.8-0.1c0.6,0,1.1,0,1.5,0c0.4,0,0.8,0,1.1,0c0.3,0,0.7,0,1.1,0c0.6,0,1.2,0,1.6,0c0.4,0,0.8,0,1.3-0.1c0.5,0,1.1,0,1.9,0c0.3,0,0.6,0.1,0.8,0.2c0.2,0.1,0.3,0.2,0.3,0.4C442.4,2.2,442,2.5,441.1,2.7z M391.6,25.5c-1.3,1.4-2.9,2.5-4.8,3.4c-1.9,0.8-4.1,1.3-6.6,1.3c-2,0-3.8-0.3-5.6-1c-1.8-0.7-3.4-1.6-4.7-2.9c-1.4-1.3-2.5-2.8-3.3-4.5c-0.8-1.7-1.2-3.7-1.2-5.8c0-2,0.3-3.9,1-5.7c0.7-1.8,1.6-3.4,2.9-4.8c1.3-1.4,2.9-2.5,4.8-3.4s4.1-1.3,6.6-1.3c2,0,3.8,0.3,5.6,1c1.8,0.7,3.4,1.6,4.7,2.9c1.4,1.3,2.5,2.8,3.3,4.5c0.8,1.7,1.2,3.7,1.2,5.8c0,1.9-0.3,3.8-1,5.6C393.9,22.5,392.9,24.1,391.6,25.5z M388.8,11.9c-0.4-1.7-1-3.3-1.7-4.7c-0.8-1.4-1.8-2.5-2.9-3.3c-1.2-0.8-2.6-1.2-4.2-1.2c-1.8,0-3.3,0.5-4.6,1.4c-1.2,0.9-2.1,2.2-2.8,3.9c-0.6,1.6-0.9,3.6-0.9,5.7c0,1.9,0.2,3.6,0.6,5.4c0.4,1.7,0.9,3.3,1.7,4.7c0.8,1.4,1.7,2.5,2.9,3.3c1.2,0.8,2.6,1.2,4.2,1.2c1.8,0,3.3-0.5,4.6-1.4c1.2-0.9,2.2-2.2,2.8-3.9c0.6-1.7,0.9-3.6,0.9-5.7C389.3,15.4,389.1,13.6,388.8,11.9z M341,10.8c0.9,0.6,1.9,1.3,3.1,2c1.4,0.8,2.6,1.6,3.5,2.4c0.9,0.8,1.7,1.7,2.1,2.7s0.7,2.2,0.7,3.5c0,1.9-0.4,3.5-1.3,4.8c-0.8,1.3-2,2.3-3.5,2.9s-3.3,1-5.3,1c-1.2,0-2.4-0.2-3.5-0.5c-1.1-0.3-2.1-0.8-3.1-1.4c-0.2-0.1-0.3-0.3-0.5-0.5c-0.1-0.2-0.3-0.3-0.3-0.5c-0.2-0.7-0.4-1.6-0.5-2.7c-0.1-1.1-0.1-2.1-0.1-3.1c0-0.2,0.1-0.3,0.2-0.4c0.2-0.1,0.4-0.1,0.6-0.1c0.2,0,0.4,0,0.5,0.1s0.2,0.2,0.3,0.4c0.6,2.2,1.6,3.9,2.8,5.1c1.2,1.2,2.6,1.8,4.1,1.8c1,0,1.8-0.2,2.4-0.6c0.7-0.4,1.2-1,1.5-1.7c0.3-0.7,0.5-1.4,0.5-2.3c0-1-0.2-1.8-0.5-2.5c-0.4-0.7-0.9-1.3-1.6-1.8c-0.7-0.5-1.6-1.1-2.7-1.7c-1.2-0.7-2.3-1.4-3.5-2.2c-1.1-0.8-2.1-1.7-2.8-2.7c-0.7-1.1-1.1-2.4-1.1-3.9c0-1.6,0.4-3,1.2-4.3c0.8-1.2,2-2.2,3.4-2.9s3.2-1,5.1-1c1.1,0,2.1,0.1,3,0.3c0.9,0.2,1.7,0.5,2.2,0.7c0.3,0.1,0.6,0.3,0.7,0.4c0.2,0.2,0.3,0.4,0.4,0.8c0.2,0.6,0.3,1.3,0.5,2.2c0.1,0.8,0.2,1.7,0.2,2.6c0,0.3-0.3,0.5-0.8,0.5c-0.2,0-0.5-0.1-0.7-0.2c-0.2-0.1-0.4-0.3-0.4-0.5c-0.5-1.7-1.2-2.9-2.1-3.8c-0.9-0.9-2-1.3-3.4-1.3c-0.9,0-1.7,0.2-2.3,0.5c-0.6,0.3-1.1,0.8-1.5,1.4c-0.4,0.6-0.6,1.4-0.6,2.4c0,0.8,0.3,1.4,0.8,2.1C339.4,9.6,340.1,10.2,341,10.8z M315,27.3c0.5,0.4,1.3,0.8,2.4,1c0.4,0.1,0.7,0.2,0.8,0.3c0.2,0.1,0.3,0.3,0.3,0.5c0,0.2-0.1,0.3-0.3,0.4c-0.2,0.1-0.4,0.1-0.7,0.1c-0.7,0-1.4,0-2.1,0c-0.7,0-1.4-0.1-2-0.1c-0.7,0-1.3,0-1.9,0c-0.6,0-1.3,0-2,0c-0.7,0-1.3,0.1-2,0.1c-0.7,0-1.4,0.1-2.1,0.1c-0.3,0-0.5-0.1-0.7-0.2s-0.3-0.2-0.3-0.4c0-0.4,0.4-0.7,1.1-0.9c1.1-0.2,1.9-0.5,2.4-1c0.5-0.4,0.7-1.1,0.7-2V5.7c0-1-0.2-1.6-0.6-2c-0.4-0.4-1.2-0.7-2.3-1c-0.7-0.1-1.1-0.4-1.1-0.9c0-0.2,0.1-0.3,0.3-0.4c0.2-0.1,0.4-0.2,0.7-0.2c0.7,0,1.4,0,2,0c0.7,0,1.3,0.1,1.9,0.1c0.6,0,1.3,0,1.9,0c0.6,0,1.2,0,1.8,0c0.6,0,1.3-0.1,1.9-0.1c0.7,0,1.3,0,2,0c0.3,0,0.5,0.1,0.7,0.2c0.2,0.1,0.3,0.3,0.3,0.5c0,0.2-0.1,0.4-0.3,0.5c-0.2,0.1-0.5,0.2-0.8,0.3c-1.2,0.3-1.9,0.6-2.3,1s-0.6,1.1-0.6,2v19.6C314.3,26.2,314.5,26.8,315,27.3z M289.8,29.7c-0.5,0-1.2,0-2,0c-0.8,0-1.6-0.1-2.5-0.1c-0.8,0-1.6-0.1-2.3-0.1c-0.6,0-1.2,0-1.9,0c-0.7,0-1.4,0.1-2.1,0.1c-0.7,0-1.3,0-1.8,0c-0.3,0-0.5-0.1-0.8-0.2c-0.2-0.1-0.3-0.3-0.3-0.5c0-0.2,0.1-0.4,0.3-0.6c0.2-0.2,0.5-0.3,0.8-0.3c1-0.2,1.8-0.4,2.3-0.8c0.5-0.4,0.6-0.9,0.5-1.6c-0.1-0.5-0.2-1.1-0.4-1.8c-0.2-0.7-0.4-1.4-0.5-2.1c-0.2-0.7-0.4-1.4-0.6-2c-0.1-0.2-0.1-0.4-0.3-0.5c-0.1-0.1-0.3-0.2-0.6-0.2h-7.8c-0.2,0-0.4,0.1-0.5,0.2c-0.1,0.1-0.2,0.3-0.3,0.6c-0.1,0.4-0.3,0.8-0.4,1.3c-0.2,0.5-0.3,1-0.5,1.5c-0.2,0.5-0.3,1-0.4,1.4c-0.1,0.4-0.2,0.8-0.3,1.1c-0.1,0.8,0,1.4,0.4,1.8c0.4,0.4,1.1,0.8,2.2,1.1c0.8,0.2,1.2,0.5,1.2,0.9c0,0.2-0.1,0.3-0.3,0.4c-0.2,0.1-0.5,0.2-0.8,0.2c-0.7,0-1.4,0-2.1-0.1c-0.7,0-1.5-0.1-2.4-0.1s-1.7,0-2.5,0.1c-0.8,0.1-1.7,0.1-2.5,0.1c-0.3,0-0.6-0.1-0.9-0.2c-0.2-0.1-0.3-0.3-0.3-0.5c0-0.3,0.1-0.5,0.3-0.6c0.2-0.1,0.5-0.3,0.8-0.4c0.8-0.2,1.6-0.6,2.2-1.1c0.6-0.5,1.1-1.1,1.5-2c0.7-1.7,1.4-3.3,2.1-4.9c0.7-1.6,1.3-3.1,1.9-4.7s1.2-3.1,1.8-4.8c0.6-1.6,1.3-3.3,1.9-5.1c0.3-0.9,0.5-1.6,0.6-2.1c0.1-0.5,0.2-0.9,0.3-1.1c0.4-0.1,0.8-0.2,1.2-0.3c0.4-0.1,0.8-0.3,1.3-0.4c0.4-0.2,0.8-0.5,1-0.8c0.3-0.3,0.5-0.6,0.7-0.7c0.1-0.1,0.2-0.1,0.3-0.1c0.1,0,0.2,0.1,0.3,0.2c0.1,0.2,0.2,0.3,0.2,0.5c0.1,0.2,0.1,0.4,0.2,0.6c0.6,2.1,1.3,4.1,2,6.2c0.7,2.1,1.4,4.2,2,6.2c0.7,2,1.3,4,1.9,5.9c0.6,1.9,1.2,3.6,1.7,5.1c0.3,0.8,0.6,1.4,1,1.9c0.4,0.5,0.8,0.8,1.3,1.1c0.5,0.2,1,0.4,1.6,0.6c0.4,0.1,0.7,0.2,0.9,0.3c0.2,0.1,0.3,0.3,0.3,0.6c0,0.2-0.1,0.3-0.3,0.4C290.4,29.6,290.1,29.7,289.8,29.7z M277.7,16.7c0-0.1,0-0.1-0.1-0.3l-3-10c-0.1-0.4-0.2-0.6-0.3-0.6c-0.1,0-0.2,0.2-0.3,0.6l-3.6,10.1c-0.1,0.1-0.1,0.3-0.1,0.3c0,0.1,0.1,0.2,0.2,0.3c0.2,0.1,0.4,0.1,0.6,0.1h6c0.4,0,0.6-0.1,0.6-0.3C277.7,16.8,277.7,16.8,277.7,16.7z M244.6,29.7c-0.7,0-1.4,0-2.1,0c-0.7,0-1.4-0.1-2.1-0.1c-0.7,0-1.3,0-1.9,0c-0.6,0-1.2,0-1.8,0c-0.6,0-1.2,0.1-1.9,0.1c-0.6,0-1.3,0.1-2,0.1c-0.3,0-0.5-0.1-0.8-0.2c-0.2-0.1-0.3-0.2-0.3-0.4c0-0.2,0.1-0.4,0.3-0.6c0.2-0.1,0.5-0.2,0.8-0.3c1-0.2,1.7-0.5,2.1-0.9c0.4-0.4,0.6-1.1,0.5-2c0-1.9-0.1-3.7-0.1-5.4c-0.1-1.7-0.1-3.5-0.2-5.2c-0.1-1.7-0.1-3.4-0.2-5.2c0-0.2-0.1-0.3-0.2-0.3c-0.1,0-0.2,0.1-0.3,0.4l-8.8,19.9c-0.1,0.3-0.3,0.5-0.6,0.4c-0.3,0-0.4-0.2-0.5-0.4c-1.3-3.4-2.7-6.7-4.2-9.9c-1.5-3.3-2.9-6.6-4.3-10c-0.1-0.2-0.2-0.3-0.4-0.3c-0.2,0.1-0.3,0.2-0.3,0.5c-0.1,1.6-0.3,3.3-0.4,5c-0.1,1.7-0.2,3.4-0.2,5.1c0,1.7,0,3.4,0,5.1c0,0.8,0.3,1.4,0.8,2s1.3,1,2.3,1.2c0.3,0.1,0.6,0.2,0.9,0.3c0.2,0.1,0.4,0.3,0.4,0.5c0,0.2-0.1,0.3-0.3,0.4c-0.2,0.1-0.5,0.1-0.8,0.1c-0.8,0-1.4,0-1.8,0c-0.4,0-0.8-0.1-1.1-0.1c-0.3,0-0.8,0-1.4,0c-0.6,0-1.2,0-1.7,0c-0.5,0-1,0.1-1.5,0.1c-0.5,0-0.9,0.1-1.2,0.1c-0.3,0-0.6-0.1-0.8-0.2c-0.2-0.1-0.3-0.2-0.3-0.4c0-0.2,0.1-0.4,0.4-0.5c0.2-0.1,0.5-0.2,0.9-0.3c0.7-0.2,1.3-0.6,1.8-1.2c0.5-0.6,0.8-1.3,0.9-2.3c0.2-1.8,0.5-3.7,0.7-5.8c0.2-2.1,0.4-4.2,0.6-6.3c0.2-2.1,0.3-4.1,0.5-5.9c0-0.2,0-0.4,0-0.7c0-0.3,0-0.5,0-0.8c0-0.4-0.1-0.8-0.2-1.1c-0.1-0.3-0.4-0.5-0.7-0.8c-0.4-0.3-0.8-0.5-1.3-0.7c-0.4-0.2-0.9-0.3-1.5-0.4c-0.3-0.1-0.6-0.2-0.8-0.3c-0.2-0.2-0.3-0.4-0.3-0.6c0-0.2,0.1-0.4,0.3-0.5c0.2-0.1,0.5-0.1,0.9-0.1c0.4,0,0.9,0,1.5,0c0.6,0,1.3,0.1,2.1,0.1c0.7,0,1.5,0.1,2.2,0.1c0.7,0,1.4,0,1.9,0c0.2,0,0.4,0.1,0.6,0.2c0.2,0.1,0.3,0.3,0.3,0.5c0.2,0.5,0.3,1.1,0.5,1.6c0.2,0.5,0.4,1.1,0.6,1.6l6.5,15.9c0.1,0.1,0.2,0.2,0.3,0.2c0.1,0,0.2,0,0.3-0.2l7-15.5c0.2-0.8,0.4-1.6,0.5-2.2c0.1-0.6,0.3-1.1,0.4-1.5c0.1-0.4,0.3-0.6,0.6-0.6h1.8c1.1-0.1,2.3-0.1,3.5-0.3c1.2-0.1,2.2-0.2,2.8-0.2c0.2,0,0.5,0,0.7,0.1c0.2,0.1,0.3,0.2,0.3,0.5s-0.1,0.4-0.3,0.5c-0.2,0.1-0.4,0.2-0.8,0.4c-0.2,0.1-0.5,0.2-0.8,0.3c-0.3,0.1-0.6,0.3-0.8,0.4c-0.6,0.3-1.1,0.6-1.4,1c-0.3,0.4-0.4,1-0.4,1.7c0,2.1,0.1,3.9,0.2,5.5c0.1,1.6,0.2,3.2,0.2,4.6c0.1,1.4,0.2,2.9,0.3,4.4c0.1,1.5,0.2,3.1,0.3,4.9c0.1,0.8,0.4,1.4,0.9,1.9c0.6,0.5,1.3,0.8,2.3,1c0.3,0.1,0.6,0.2,0.8,0.3c0.2,0.1,0.3,0.3,0.3,0.5c0,0.2-0.1,0.3-0.3,0.4C245.2,29.6,244.9,29.7,244.6,29.7z M182.4,23.2c-0.2,0.8-0.4,1.6-0.6,2.2c-0.2,0.6-0.3,1.2-0.4,1.8c-0.1,0.6-0.2,1.2-0.3,1.8c0,0.2-0.1,0.4-0.2,0.5c-0.1,0.2-0.3,0.2-0.5,0.2c-0.9,0-1.9,0-3.1,0c-1.2,0-2.5-0.1-3.9-0.1c-1.4,0-2.7,0-4.1-0.1c-1.4,0-2.7,0-3.9,0c-0.6,0-1.4,0-2.2,0c-0.8,0-1.6,0.1-2.3,0.1c-0.7,0-1.2,0.1-1.6,0.1c-0.3,0-0.6-0.1-0.7-0.2c-0.2-0.1-0.3-0.3-0.3-0.4c0-0.2,0.1-0.4,0.3-0.5c0.2-0.1,0.4-0.2,0.6-0.3c1-0.3,1.8-0.6,2.3-1c0.5-0.4,0.7-1,0.7-1.9V5.5c0-0.7-0.1-1.2-0.2-1.5c-0.2-0.3-0.4-0.6-0.8-0.8c-0.4-0.2-1-0.4-1.7-0.5c-0.8-0.1-1.1-0.4-1.1-0.9c0-0.2,0.1-0.3,0.3-0.4c0.2-0.1,0.4-0.2,0.7-0.2c0.7,0,1.4,0,2.1,0c0.7,0,1.3,0.1,1.9,0.1c0.6,0,1.2,0,1.8,0c0.7,0,1.3,0,2,0c0.7,0,1.4-0.1,2.1-0.1c0.7,0,1.4,0,2.1,0c0.3,0,0.5,0.1,0.7,0.2c0.2,0.1,0.3,0.3,0.3,0.5c0,0.2-0.1,0.4-0.3,0.5c-0.2,0.1-0.5,0.2-0.8,0.3c-1.1,0.3-2,0.6-2.5,0.9c-0.5,0.3-0.8,0.9-0.8,1.8v19.8c0,0.8,0.2,1.5,0.6,1.8c0.4,0.4,1.1,0.6,2.1,0.6h4.7c0.7,0,1.3-0.1,1.8-0.3c0.5-0.2,1-0.5,1.3-0.9c0.5-0.5,1-1,1.3-1.5c0.3-0.5,0.7-1.1,1-1.8c0.2-0.4,0.4-0.8,0.6-1c0.2-0.2,0.3-0.3,0.5-0.3c0.2,0,0.3,0.1,0.4,0.3c0.1,0.2,0.1,0.4,0.1,0.6c0,0,0,0.1,0,0.3C182.4,23,182.4,23.1,182.4,23.2z M143.9,27.2c-0.2,0.7-0.4,1.3-0.6,1.9c-0.1,0.2-0.2,0.4-0.3,0.5s-0.3,0.2-0.5,0.2c-0.7,0-1.6,0-2.7,0c-1.1,0-2.3,0-3.5-0.1c-1.3,0-2.6-0.1-3.9-0.1c-1.3,0-2.6,0-3.8,0c-0.6,0-1.2,0-1.8,0c-0.6,0-1.3,0.1-1.9,0.1c-0.6,0-1.3,0.1-2,0.1c-0.3,0-0.6-0.1-0.8-0.2c-0.2-0.1-0.3-0.3-0.3-0.4c0-0.4,0.4-0.6,1.1-0.8c1-0.3,1.8-0.6,2.2-1c0.4-0.4,0.7-1.1,0.7-2V5.7c0-1-0.2-1.7-0.6-2.1s-1.1-0.7-2.2-1c-0.4-0.1-0.7-0.2-0.9-0.4c-0.2-0.2-0.3-0.3-0.3-0.5c0-0.2,0.1-0.4,0.3-0.5c0.2-0.1,0.4-0.2,0.8-0.2c0.8,0,1.6,0,2.4,0c0.8,0,1.5,0.1,2.2,0.1c0.7,0,1.5,0,2.3,0c1.3,0,2.7,0,4.2,0c1.5,0,2.8,0,4,0c1,0,1.7-0.1,2.4-0.1c0.6-0.1,1-0.1,1.1-0.1c0.2,0,0.4,0,0.6,0.1c0.2,0.1,0.3,0.3,0.4,0.5c0.1,1,0.3,1.9,0.4,2.8c0.2,0.9,0.3,1.7,0.3,2.4c0,0.3-0.1,0.5-0.2,0.6c-0.1,0.1-0.3,0.2-0.4,0.2c-0.1,0-0.3-0.1-0.4-0.2c-0.1-0.1-0.2-0.3-0.3-0.5c-0.2-0.7-0.4-1.2-0.7-1.7c-0.2-0.5-0.4-0.9-0.7-1.1c-0.4-0.4-0.8-0.7-1.3-1c-0.5-0.2-1.1-0.3-1.8-0.3h-4c-0.5,0-1,0.2-1.4,0.5c-0.4,0.3-0.6,0.7-0.6,1.3v8.5c0,0.3,0.1,0.6,0.3,0.7c0.2,0.2,0.4,0.3,0.7,0.3h4c0.8,0,1.3-0.2,1.7-0.6c0.3-0.4,0.6-1,0.8-1.8c0.2-0.6,0.5-0.9,0.8-0.9c0.1,0,0.3,0.1,0.4,0.2c0.1,0.2,0.2,0.4,0.2,0.6c0,0.3-0.1,0.6-0.1,1c0,0.4-0.1,0.8-0.1,1.2c0,0.4,0,0.8,0,1.1c0,0.3,0,0.7,0,1.2c0,0.4,0,0.9,0,1.3c0,0.4,0,0.8,0.1,1.1c0,0.3,0,0.6-0.1,0.7c-0.1,0.2-0.2,0.3-0.4,0.3c-0.5,0-0.8-0.4-1-1.2c-0.2-0.8-0.5-1.4-0.8-1.8c-0.3-0.4-0.8-0.6-1.3-0.6h-4.1c-0.4,0-0.7,0.1-0.9,0.2c-0.2,0.1-0.3,0.4-0.3,0.8v8.2c0,1,0.2,1.6,0.6,2c0.4,0.4,1,0.6,1.9,0.6h3.6c0.7,0,1.4-0.1,2-0.2c0.6-0.1,1.1-0.4,1.5-0.7c0.5-0.3,0.9-0.8,1.3-1.4c0.4-0.6,0.8-1.2,1.1-2c0.1-0.2,0.2-0.4,0.3-0.5c0.1-0.1,0.3-0.1,0.4-0.1c0.1,0,0.3,0.1,0.3,0.3c0.1,0.1,0.1,0.3,0.1,0.5c0,0.4-0.1,0.9-0.2,1.6C144.3,25.9,144.1,26.6,143.9,27.2z M105.5,27.1c-0.7,0.5-1.4,0.9-2,1.2c-0.9,0.5-2,0.8-3.2,1c-1.2,0.2-2.6,0.3-4.3,0.3c-0.8,0-1.6,0-2.5-0.1c-0.9-0.1-1.8-0.1-2.8-0.1c-0.7,0-1.3,0-2,0c-0.7,0-1.3,0.1-2,0.1c-0.7,0-1.3,0.1-2,0.1c-0.3,0-0.6-0.1-0.8-0.2c-0.2-0.1-0.3-0.3-0.3-0.4c0-0.4,0.4-0.6,1.1-0.8c1-0.3,1.8-0.6,2.2-1c0.5-0.4,0.7-1.1,0.7-2V5.7c0-1-0.2-1.7-0.6-2.1c-0.4-0.4-1.1-0.7-2.1-0.9c-0.4-0.1-0.7-0.2-0.9-0.3C84,2.1,83.9,2,83.9,1.8c0-0.2,0.1-0.4,0.3-0.5c0.2-0.1,0.4-0.2,0.8-0.2c0.9,0,1.6,0,2.1,0c0.5,0,1.1,0.1,1.6,0.1c0.5,0,1.1,0.1,1.7,0.1c0.6,0,1.2,0,1.7-0.1c0.5-0.1,1.1-0.1,1.7-0.2c0.6-0.1,1.4-0.1,2.3-0.1c3.4,0,6,0.5,7.7,1.5c1.7,1,2.6,2.6,2.6,5c0,0.9-0.2,1.8-0.6,2.6c-0.4,0.8-0.8,1.4-1.4,1.8c-0.5,0.4-0.9,0.8-1.4,1c-0.5,0.3-1,0.5-1.7,0.7c-0.1,0-0.2,0.1-0.2,0.2c0,0.1,0.1,0.2,0.2,0.2c0.7,0.2,1.5,0.4,2.2,0.7c0.8,0.3,1.5,0.7,2.2,1.2c0.7,0.5,1.2,1.2,1.6,2c0.4,0.8,0.6,1.9,0.6,3.1c0,1.6-0.3,2.9-0.8,3.8C106.8,25.9,106.2,26.6,105.5,27.1z M100.5,5.4c-0.3-0.8-0.8-1.5-1.6-2s-1.8-0.7-3.1-0.7c-1,0-1.6,0.2-2,0.5c-0.4,0.3-0.5,0.8-0.5,1.4V12c0,0.6,0.2,1,0.7,1.2c0.4,0.2,0.8,0.3,1.2,0.3c0.7,0,1.4-0.1,2.1-0.3c0.7-0.2,1.4-0.5,2.1-1c0.3-0.2,0.6-0.6,1-1.3c0.4-0.6,0.6-1.6,0.6-2.8C100.9,7.2,100.8,6.3,100.5,5.4z M101.5,18.8c-0.3-0.7-0.6-1.2-1-1.6c-0.4-0.4-0.7-0.7-1.1-0.9c-0.3-0.2-0.8-0.4-1.4-0.6c-0.7-0.2-1.5-0.3-2.5-0.3c-0.6,0-1.2,0.1-1.6,0.4s-0.6,0.6-0.6,1v8c0,1,0.3,1.7,0.8,2.2c0.5,0.4,1.2,0.7,2.1,0.7c1,0,2-0.3,2.8-0.8c0.9-0.5,1.6-1.3,2.1-2.2c0.5-0.9,0.8-2,0.8-3.1C101.9,20.4,101.8,19.5,101.5,18.8z M69.3,27.2c-0.2,0.7-0.4,1.3-0.6,1.9c-0.1,0.2-0.2,0.4-0.3,0.5c-0.1,0.1-0.3,0.2-0.5,0.2c-0.7,0-1.6,0-2.7,0c-1.1,0-2.3,0-3.5-0.1c-1.3,0-2.6-0.1-3.9-0.1c-1.3,0-2.6,0-3.8,0c-0.6,0-1.2,0-1.8,0c-0.6,0-1.3,0.1-1.9,0.1c-0.6,0-1.3,0.1-2,0.1c-0.3,0-0.6-0.1-0.8-0.2c-0.2-0.1-0.3-0.3-0.3-0.4c0-0.4,0.4-0.6,1.1-0.8c1-0.3,1.8-0.6,2.2-1c0.4-0.4,0.7-1.1,0.7-2V5.7c0-1-0.2-1.7-0.6-2.1s-1.1-0.7-2.2-1c-0.4-0.1-0.7-0.2-0.9-0.4c-0.2-0.2-0.3-0.3-0.3-0.5c0-0.2,0.1-0.4,0.3-0.5c0.2-0.1,0.4-0.2,0.8-0.2c0.8,0,1.6,0,2.4,0c0.8,0,1.5,0.1,2.2,0.1c0.7,0,1.5,0,2.3,0c1.3,0,2.7,0,4.2,0c1.5,0,2.8,0,4,0c1,0,1.7-0.1,2.4-0.1c0.6-0.1,1-0.1,1.1-0.1c0.2,0,0.4,0,0.6,0.1s0.3,0.3,0.4,0.5c0.1,1,0.3,1.9,0.4,2.8c0.2,0.9,0.3,1.7,0.3,2.4c0,0.3-0.1,0.5-0.2,0.6c-0.1,0.1-0.3,0.2-0.4,0.2c-0.1,0-0.3-0.1-0.4-0.2c-0.1-0.1-0.2-0.3-0.3-0.5c-0.2-0.7-0.4-1.2-0.7-1.7c-0.2-0.5-0.4-0.9-0.7-1.1c-0.4-0.4-0.8-0.7-1.3-1C64.2,3.1,63.6,3,62.9,3h-4c-0.5,0-1,0.2-1.4,0.5c-0.4,0.3-0.7,0.7-0.7,1.3v8.5c0,0.3,0.1,0.6,0.3,0.7c0.2,0.2,0.4,0.3,0.7,0.3h4c0.8,0,1.3-0.2,1.7-0.6c0.3-0.4,0.6-1,0.8-1.8c0.2-0.6,0.5-0.9,0.8-0.9c0.1,0,0.3,0.1,0.4,0.2c0.1,0.2,0.2,0.4,0.2,0.6c0,0.3-0.1,0.6-0.1,1c0,0.4-0.1,0.8-0.1,1.2c0,0.4,0,0.8,0,1.1c0,0.3,0,0.7,0,1.2c0,0.4,0,0.9,0,1.3c0,0.4,0,0.8,0.1,1.1c0,0.3,0,0.6-0.1,0.7c-0.1,0.2-0.2,0.3-0.4,0.3c-0.5,0-0.8-0.4-1-1.2c-0.2-0.8-0.5-1.4-0.8-1.8C63,16.2,62.6,16,62,16H58c-0.4,0-0.7,0.1-0.9,0.2c-0.2,0.1-0.3,0.4-0.3,0.8v8.2c0,1,0.2,1.6,0.6,2c0.4,0.4,1,0.6,1.9,0.6h3.6c0.7,0,1.4-0.1,2-0.2c0.6-0.1,1.1-0.4,1.5-0.7c0.5-0.3,0.9-0.8,1.3-1.4c0.4-0.6,0.8-1.2,1.1-2c0.1-0.2,0.2-0.4,0.3-0.5c0.1-0.1,0.3-0.1,0.4-0.1c0.1,0,0.3,0.1,0.3,0.3c0.1,0.1,0.1,0.3,0.1,0.5c0,0.4-0.1,0.9-0.2,1.6C69.7,25.9,69.5,26.6,69.3,27.2z M29.5,27.3c0.3,0.4,1,0.7,2,1c0.7,0.1,1.1,0.4,1.1,0.8c0,0.2-0.1,0.3-0.3,0.4c-0.2,0.1-0.4,0.2-0.7,0.2c-0.7,0-1.3,0-1.9-0.1c-0.6,0-1.2-0.1-1.8-0.1c-0.6,0-1.2,0-1.8,0c-0.6,0-1.2,0-1.8,0c-0.6,0-1.3,0.1-2,0.1c-0.7,0-1.3,0-2,0c-0.3,0-0.5-0.1-0.6-0.2c-0.2-0.1-0.3-0.3-0.3-0.5c0-0.2,0.1-0.4,0.3-0.5c0.2-0.1,0.4-0.2,0.8-0.3c1-0.3,1.8-0.6,2.2-1c0.4-0.4,0.7-1.1,0.7-2v-8.2c0-0.2,0-0.3-0.1-0.5c0-0.1-0.2-0.2-0.4-0.2H9.8c-0.3,0-0.5,0.2-0.5,0.7v8.1c0,0.9,0.3,1.5,0.8,2c0.5,0.5,1.3,0.9,2.3,1.1c0.4,0.1,0.6,0.2,0.8,0.3c0.2,0.1,0.3,0.3,0.3,0.5c0,0.2-0.1,0.4-0.2,0.5c-0.2,0.1-0.4,0.2-0.7,0.2c-0.7,0-1.3,0-2,0c-0.7,0-1.4-0.1-2-0.1c-0.6,0-1.3,0-1.9,0s-1.2,0-1.8,0c-0.6,0-1.2,0.1-1.9,0.1c-0.6,0-1.3,0.1-1.9,0.1c-0.3,0-0.5-0.1-0.7-0.2C0.1,29.4,0,29.3,0,29.1c0-0.4,0.4-0.7,1.1-0.8c1-0.2,1.7-0.5,2.1-1c0.3-0.4,0.5-1.1,0.5-2V5.7c0-1-0.1-1.6-0.4-2s-1-0.7-2-1C0.5,2.5,0.1,2.2,0.1,1.8c0-0.2,0.1-0.4,0.3-0.5c0.2-0.1,0.4-0.2,0.7-0.2c0.7,0,1.3,0,2,0c0.6,0,1.2,0.1,1.8,0.1c0.6,0,1.2,0,1.7,0c0.6,0,1.2,0,1.8,0c0.6,0,1.3-0.1,1.9-0.1c0.7,0,1.3,0,2,0c0.6,0,1,0.2,1,0.7c0,0.2-0.1,0.4-0.3,0.5c-0.2,0.1-0.4,0.2-0.8,0.3C11.1,3,10.3,3.3,9.9,3.8c-0.4,0.4-0.6,1.1-0.6,2v8.1c0,0.2,0.1,0.3,0.2,0.4c0.1,0.1,0.3,0.1,0.5,0.1h13c0.3,0,0.5-0.2,0.5-0.6v-8c0-0.8-0.2-1.5-0.6-1.9c-0.4-0.4-1.1-0.8-2.3-1.1c-0.4-0.1-0.7-0.2-0.8-0.3c-0.2-0.1-0.3-0.3-0.3-0.5c0-0.4,0.3-0.7,1-0.7c0.7,0,1.4,0,2.1,0c0.7,0,1.4,0.1,2,0.1c0.7,0,1.3,0,1.9,0c0.5,0,1.1,0,1.6,0c0.5,0,1.1-0.1,1.7-0.1c0.6,0,1.2,0,1.9,0c0.3,0,0.5,0.1,0.7,0.2c0.2,0.1,0.3,0.3,0.3,0.5c0,0.4-0.4,0.7-1.1,0.9c-1,0.2-1.7,0.6-2,1c-0.3,0.4-0.5,1.1-0.5,2v19.6C29,26.3,29.2,26.9,29.5,27.3z"/></svg>